PathFileType	4	(X/Y/Z)	 control3min.trc
DataRate	CameraRate	NumFrames	NumMarkers	Units	OrigDataRate	OrigDataStartFrame	OrigNumFrames
200	200	8	43	m	200	751	1000
Frame#	Time	C7			LSH			RSH			MAN			RASI			LASI			HIPR			HIPL			RPSI			LPSI			COX			RTHI1			RTHI2			RTHI3			RTHI4			RLKN			RMKN			RSHA1			RSHA2			RSHA3			RSHA4			RLMAL			RMMAL			RHEEL			RMET5			RMET1			RTOE			LTHI1			LTHI2			LTHI3			LTHI4			LLKN			LMKN			LSHA1			LSHA2			LSHA3			LSHA4			LLMAL			LMMAL			LHEEL			LMET5			LMET1			LTOE			
		X1	Y1	Z1	X2	Y2	Z2	X3	Y3	Z3	X4	Y4	Z4	X5	Y5	Z5	X6	Y6	Z6	X7	Y7	Z7	X8	Y8	Z8	X9	Y9	Z9	X10	Y10	Z10	X11	Y11	Z11	X12	Y12	Z12	X13	Y13	Z13	X14	Y14	Z14	X15	Y15	Z15	X16	Y16	Z16	X17	Y17	Z17	X18	Y18	Z18	X19	Y19	Z19	X20	Y20	Z20	X21	Y21	Z21	X22	Y22	Z22	X23	Y23	Z23	X24	Y24	Z24	X25	Y25	Z25	X26	Y26	Z26	X27	Y27	Z27	X28	Y28	Z28	X29	Y29	Z29	X30	Y30	Z30	X31	Y31	Z31	X32	Y32	Z32	X33	Y33	Z33	X34	Y34	Z34	X35	Y35	Z35	X36	Y36	Z36	X37	Y37	Z37	X38	Y38	Z38	X39	Y39	Z39	X40	Y40	Z40	X41	Y41	Z41	X42	Y42	Z42	X43	Y43	Z43	
751	3.7550	-0.283160	1.533686	-0.556677	-0.245838	1.545672	-0.730016	-0.233734	1.533053	-0.383314	-0.155976	1.486463	-0.557216	-0.157195	1.052176	-0.455453	-0.147226	1.048367	-0.668838	-0.204313	1.109931	-0.426289	-0.214666	1.102565	-0.702669	-0.303461	1.091413	-0.512607	-0.298279	1.088648	-0.615956	-0.303883	1.085114	-0.562174	-0.247348	0.853629	-0.377469	-0.239039	0.794731	-0.371364	-0.175179	0.800505	-0.383738	-0.176710	0.861551	-0.392698	-0.241261	0.535332	-0.389738	-0.238709	0.523564	-0.490939	-0.341190	0.342003	-0.384532	-0.354691	0.302057	-0.393943	-0.294310	0.288986	-0.393579	-0.285215	0.327923	-0.389155	-0.359245	0.175501	-0.400220	-0.322671	0.187191	-0.472864	-0.397991	0.180750	-0.455542	-0.280237	0.084154	-0.365704	-0.232370	0.081095	-0.427596	-0.214715	0.074332	-0.417020	-0.256968	0.842487	-0.743671	-0.242644	0.783121	-0.753202	-0.178588	0.793247	-0.755756	-0.184267	0.852702	-0.746554	-0.202819	0.538036	-0.743881	-0.210021	0.532999	-0.640656	-0.295105	0.320274	-0.767985	-0.304235	0.281124	-0.762551	-0.244762	0.273687	-0.747929	-0.242566	0.317239	-0.755454	-0.296929	0.175917	-0.762811	-0.288562	0.185461	-0.685409	-0.356055	0.166863	-0.720937	-0.218213	0.078782	-0.767231	-0.188055	0.072905	-0.695346	-0.165836	0.064005	-0.700694	
752	3.7600	-0.282905	1.533387	-0.556952	-0.245362	1.545233	-0.730547	-0.233467	1.532371	-0.383281	-0.155713	1.486156	-0.557478	-0.157686	1.052026	-0.455632	-0.147613	1.048026	-0.669087	-0.205002	1.109649	-0.426512	-0.215119	1.101935	-0.702934	-0.303966	1.090957	-0.512934	-0.298753	1.088084	-0.616253	-0.304379	1.084607	-0.562475	-0.247284	0.853295	-0.377685	-0.238818	0.794413	-0.371602	-0.174988	0.800348	-0.384080	-0.176681	0.861390	-0.393033	-0.240934	0.534992	-0.390054	-0.238363	0.523367	-0.491266	-0.341655	0.342036	-0.385182	-0.355272	0.302135	-0.394724	-0.294973	0.288824	-0.394296	-0.285702	0.327725	-0.389798	-0.360179	0.175570	-0.401063	-0.323677	0.187273	-0.473804	-0.399023	0.180751	-0.456269	-0.280927	0.084422	-0.366704	-0.233266	0.081403	-0.428752	-0.215526	0.074680	-0.418250	-0.256923	0.842016	-0.743940	-0.242388	0.782696	-0.753403	-0.178340	0.792986	-0.755690	-0.184227	0.852442	-0.746586	-0.202590	0.537794	-0.744115	-0.209447	0.532783	-0.640965	-0.295969	0.320376	-0.767977	-0.305238	0.281263	-0.762544	-0.245753	0.273561	-0.748145	-0.243393	0.317106	-0.755658	-0.298082	0.175931	-0.762911	-0.289786	0.185532	-0.685433	-0.357355	0.166468	-0.721226	-0.218703	0.079620	-0.767175	-0.188930	0.073791	-0.695099	-0.166660	0.065253	-0.700348	
753	3.7650	-0.282615	1.532885	-0.557246	-0.244834	1.544556	-0.731093	-0.233150	1.531448	-0.383273	-0.155420	1.485592	-0.557748	-0.158200	1.051634	-0.455810	-0.148023	1.047486	-0.669317	-0.205675	1.109143	-0.426742	-0.215570	1.101137	-0.703192	-0.304495	1.090251	-0.513238	-0.299252	1.087296	-0.616540	-0.304908	1.083861	-0.562772	-0.247194	0.852714	-0.377921	-0.238576	0.793848	-0.371853	-0.174774	0.799950	-0.384405	-0.176625	0.860981	-0.393356	-0.240540	0.534399	-0.390367	-0.238035	0.522914	-0.491578	-0.342059	0.341832	-0.385748	-0.355809	0.301963	-0.395437	-0.295608	0.288404	-0.395009	-0.286143	0.327271	-0.390418	-0.361084	0.175414	-0.401847	-0.324768	0.187152	-0.474720	-0.400114	0.180610	-0.456881	-0.281621	0.084393	-0.367843	-0.234303	0.081400	-0.430089	-0.216467	0.074671	-0.419741	-0.256850	0.841341	-0.744198	-0.242088	0.782072	-0.753585	-0.178058	0.792554	-0.755617	-0.184157	0.852006	-0.746634	-0.202315	0.537320	-0.744376	-0.208845	0.532329	-0.641300	-0.296781	0.320265	-0.768029	-0.306210	0.281188	-0.762603	-0.246723	0.273199	-0.748392	-0.244182	0.316740	-0.755887	-0.299192	0.175708	-0.763069	-0.291037	0.185399	-0.685512	-0.358672	0.165941	-0.721702	-0.219239	0.080014	-0.766890	-0.190101	0.074327	-0.694551	-0.167773	0.066134	-0.699597	
754	3.7700	-0.282293	1.532181	-0.557558	-0.244255	1.543651	-0.731651	-0.232795	1.530299	-0.383284	-0.155100	1.484764	-0.558032	-0.158735	1.050995	-0.455985	-0.148452	1.046749	-0.669533	-0.206323	1.108409	-0.426973	-0.216005	1.100177	-0.703427	-0.305041	1.089296	-0.513520	-0.299773	1.086294	-0.616811	-0.305465	1.082880	-0.563056	-0.247083	0.851893	-0.378176	-0.238321	0.793045	-0.372113	-0.174534	0.799308	-0.384714	-0.176549	0.860325	-0.393674	-0.240073	0.533546	-0.390673	-0.237729	0.522200	-0.491866	-0.342392	0.341380	-0.386235	-0.356295	0.301529	-0.396088	-0.296197	0.287737	-0.395711	-0.286525	0.326564	-0.391019	-0.361964	0.175027	-0.402575	-0.325933	0.186827	-0.475611	-0.401244	0.180326	-0.457391	-0.282342	0.084018	-0.369076	-0.235448	0.081008	-0.431672	-0.217521	0.074332	-0.421464	-0.256751	0.840467	-0.744442	-0.241756	0.781246	-0.753742	-0.177757	0.791935	-0.755539	-0.184061	0.851389	-0.746690	-0.201985	0.536617	-0.744653	-0.208252	0.531635	-0.641642	-0.297525	0.319917	-0.768138	-0.307126	0.280887	-0.762729	-0.247651	0.272605	-0.748652	-0.244917	0.316148	-0.756135	-0.300248	0.175246	-0.763266	-0.292319	0.185050	-0.685642	-0.359992	0.165286	-0.722355	-0.219859	0.080023	-0.766445	-0.191530	0.074477	-0.693694	-0.169161	0.066638	-0.698505	
755	3.7750	-0.281942	1.531271	-0.557887	-0.243631	1.542516	-0.732218	-0.232401	1.528927	-0.383318	-0.154757	1.483678	-0.558331	-0.159282	1.050114	-0.456156	-0.148900	1.045808	-0.669734	-0.206939	1.107452	-0.427205	-0.216481	1.099052	-0.703665	-0.305602	1.088114	-0.513782	-0.300317	1.085090	-0.617065	-0.306032	1.081675	-0.563315	-0.246956	0.850829	-0.378451	-0.238049	0.791996	-0.372383	-0.174276	0.798418	-0.385011	-0.176454	0.859422	-0.393989	-0.239529	0.532439	-0.390968	-0.237453	0.521227	-0.492137	-0.342642	0.340678	-0.386659	-0.356728	0.300849	-0.396677	-0.296723	0.286822	-0.396407	-0.286854	0.325587	-0.391623	-0.362812	0.174422	-0.403246	-0.327156	0.186295	-0.476476	-0.402420	0.179880	-0.457797	-0.283106	0.083343	-0.370414	-0.236694	0.080349	-0.433422	-0.218682	0.073633	-0.423394	-0.256632	0.839390	-0.744671	-0.241405	0.780210	-0.753874	-0.177442	0.791115	-0.755457	-0.183944	0.850579	-0.746750	-0.201598	0.535675	-0.744936	-0.207691	0.530703	-0.641982	-0.298191	0.319344	-0.768332	-0.307989	0.280367	-0.762928	-0.248530	0.271783	-0.748912	-0.245589	0.315332	-0.756390	-0.301242	0.174547	-0.763495	-0.293623	0.184488	-0.685812	-0.361300	0.164511	-0.723153	-0.220543	0.079592	-0.765789	-0.193204	0.074271	-0.692616	-0.170771	0.066707	-0.697106	
756	3.7800	-0.281565	1.530154	-0.558231	-0.242963	1.541158	-0.732789	-0.231962	1.527324	-0.383382	-0.154398	1.482326	-0.558646	-0.159840	1.048985	-0.456326	-0.149365	1.044659	-0.669925	-0.207526	1.106264	-0.427442	-0.216960	1.097762	-0.703884	-0.306167	1.086701	-0.514017	-0.300872	1.083693	-0.617299	-0.306616	1.080260	-0.563556	-0.246818	0.849517	-0.378739	-0.237769	0.790699	-0.372655	-0.174005	0.797283	-0.385295	-0.176345	0.858273	-0.394306	-0.238906	0.531079	-0.391253	-0.237196	0.520001	-0.492395	-0.342830	0.339726	-0.387033	-0.357130	0.299917	-0.397191	-0.297196	0.285671	-0.397090	-0.287129	0.324359	-0.392229	-0.363638	0.173587	-0.403875	-0.328429	0.185557	-0.477315	-0.403622	0.179265	-0.458114	-0.283895	0.082379	-0.371806	-0.238046	0.079380	-0.435284	-0.219933	0.072651	-0.425466	-0.256494	0.838100	-0.744881	-0.241042	0.778960	-0.753984	-0.177115	0.790083	-0.755373	-0.183808	0.849558	-0.746810	-0.201154	0.534491	-0.745215	-0.207180	0.529538	-0.642307	-0.298767	0.318543	-0.768599	-0.308772	0.279618	-0.763199	-0.249352	0.270735	-0.749157	-0.246190	0.314280	-0.756639	-0.302176	0.173616	-0.763740	-0.294944	0.183720	-0.686004	-0.362592	0.163613	-0.724073	-0.221318	0.078797	-0.765009	-0.195079	0.073712	-0.691386	-0.172589	0.066366	-0.695476	
757	3.7850	-0.281161	1.528818	-0.558588	-0.242248	1.539578	-0.733361	-0.231479	1.525493	-0.383473	-0.154031	1.480707	-0.558980	-0.160410	1.047609	-0.456493	-0.149845	1.043298	-0.670105	-0.208082	1.104850	-0.427682	-0.217443	1.096305	-0.704076	-0.306733	1.085060	-0.514231	-0.301436	1.082098	-0.617507	-0.307205	1.078625	-0.563779	-0.246674	0.847956	-0.379036	-0.237478	0.789160	-0.372927	-0.173728	0.795910	-0.385579	-0.176227	0.856877	-0.394624	-0.238203	0.529469	-0.391529	-0.236962	0.518516	-0.492638	-0.342968	0.338523	-0.387366	-0.357507	0.298735	-0.397628	-0.297644	0.284276	-0.397781	-0.287355	0.322874	-0.392840	-0.364453	0.172527	-0.404469	-0.329740	0.184602	-0.478127	-0.404865	0.178472	-0.458351	-0.284690	0.081140	-0.373258	-0.239477	0.078119	-0.437272	-0.221276	0.071387	-0.427663	-0.256347	0.836590	-0.745073	-0.240677	0.777484	-0.754074	-0.176786	0.788828	-0.755289	-0.183656	0.848316	-0.746862	-0.200653	0.533065	-0.745488	-0.206724	0.528132	-0.642615	-0.299248	0.317502	-0.768930	-0.309479	0.278635	-0.763539	-0.250115	0.269458	-0.749379	-0.246717	0.312990	-0.756871	-0.303053	0.172454	-0.763996	-0.296285	0.182747	-0.686204	-0.363874	0.162586	-0.725080	-0.222157	0.077642	-0.764145	-0.197119	0.072770	-0.690007	-0.174599	0.065643	-0.693701	
758	3.7900	-0.280734	1.527252	-0.558953	-0.241493	1.537776	-0.733932	-0.230961	1.523445	-0.383584	-0.153667	1.478825	-0.559328	-0.160987	1.045983	-0.456659	-0.150338	1.041716	-0.670282	-0.208608	1.103198	-0.427927	-0.217931	1.094671	-0.704247	-0.307302	1.083198	-0.514437	-0.302008	1.080303	-0.617695	-0.307797	1.076779	-0.563974	-0.246532	0.846148	-0.379336	-0.237180	0.787377	-0.373192	-0.173446	0.794286	-0.385862	-0.176107	0.855246	-0.394944	-0.237433	0.527601	-0.391799	-0.236700	0.516791	-0.492881	-0.343049	0.337066	-0.387642	-0.357860	0.297318	-0.397992	-0.298052	0.282647	-0.398462	-0.287539	0.321144	-0.393449	-0.365283	0.171248	-0.405024	-0.331091	0.183429	-0.478901	-0.406158	0.177493	-0.458498	-0.285519	0.079614	-0.374735	-0.240938	0.076647	-0.439316	-0.222659	0.069906	-0.429894	-0.256195	0.834848	-0.745245	-0.240312	0.775775	-0.754148	-0.176458	0.787335	-0.755200	-0.183508	0.846834	-0.746891	-0.200089	0.531397	-0.745744	-0.206322	0.526487	-0.642903	-0.299636	0.316202	-0.769308	-0.310101	0.277413	-0.763934	-0.250816	0.267947	-0.749564	-0.247168	0.311454	-0.757081	-0.303891	0.171070	-0.764250	-0.297676	0.181565	-0.686415	-0.365136	0.161427	-0.726139	-0.223085	0.076183	-0.763202	-0.199304	0.071501	-0.688538	-0.176741	0.064528	-0.691811	
